# xmcd
# 
# Track frame offsets:
#     183
#     26280
#     57460
#     79868
#     98558
#     122498
#     143153
#     164758
# 
# Disc length: 2560
# 
# Revision: 0
# Processed by: cddbd v1.5.2PL0 Copyright (c) Steve Scherf et al.
# Submitted via: BonkEnc v1.0.6
# 
DISCID=6209fe08
DTITLE=John Mayall - Life In The Jungle
DYEAR=1992
DGENRE=Blues
TTITLE0=Ridin' On The L&M
TTITLE1=Help Me
TTITLE2=All Your Love
TTITLE3=I Ain't Got You
TTITLE4=One Life To Live
TTITLE5=The Last Time
TTITLE6=Fascinating Lover
TTITLE7=Life In The Jungle
EXTD=
EXTT0=
EXTT1=
EXTT2=
EXTT3=
EXTT4=
EXTT5=
EXTT6=
EXTT7=
PLAYORDER=
